<?xml version="1.0" standalone="no"?>
<!DOCTYPE svg PUBLIC "-//W3C//DTD SVG 20010904//EN"
 "http://www.w3.org/TR/2001/REC-SVG-20010904/DTD/svg10.dtd">
<svg version="1.0" xmlns="http://www.w3.org/2000/svg"
 width="142.000000pt" height="142.000000pt" viewBox="0 0 142.000000 142.000000"
 preserveAspectRatio="xMidYMid meet">
<metadata>
Created by potrace 1.14, written by Peter Selinger 2001-2017
</metadata>
<g transform="translate(0.000000,142.000000) scale(0.100000,-0.100000)"
fill="#000000" stroke="none">
<path d="M120 1061 c0 -11 4 -22 10 -26 5 -3 21 -33 36 -66 15 -33 38 -69 52
-80 30 -23 21 -25 -13 -3 -34 22 -49 10 -30 -25 8 -16 21 -31 30 -34 8 -4 15
-14 15 -23 0 -31 40 -73 82 -84 22 -6 38 -14 35 -16 -3 -3 -29 2 -58 10 -64
19 -59 19 -59 0 0 -9 20 -41 45 -70 26 -31 40 -54 33 -56 -16 -6 -3 -37 19
-45 10 -4 32 -17 50 -30 25 -19 39 -23 70 -19 l38 6 -30 -15 c-16 -8 -36 -14
-42 -15 -22 0 -14 -28 10 -33 12 -2 50 -4 83 -3 l62 1 -24 -28 c-33 -39 -32
-59 4 -51 71 18 97 31 102 55 5 21 12 24 61 27 52 3 55 2 66 -27 9 -25 18 -32
52 -37 23 -4 44 -11 47 -15 3 -5 9 -9 15 -9 12 0 12 37 -1 45 -5 3 -19 20 -31
38 -19 27 -20 29 -3 15 17 -15 85 -19 157 -9 21 3 2 30 -30 45 -32 13 -34 15
-9 10 30 -5 86 12 86 27 0 5 16 15 35 23 37 16 45 33 20 42 -12 5 -10 10 10
26 14 11 25 24 25 30 0 6 11 21 25 34 23 21 34 54 19 54 -4 0 -38 -9 -76 -21
-39 -11 -72 -19 -74 -16 -2 2 20 11 50 20 38 12 62 27 80 52 14 18 26 37 26
41 0 3 14 22 31 41 39 45 26 67 -24 39 -31 -17 -31 -17 -11 1 12 10 39 50 59
88 20 39 42 76 47 82 7 9 6 14 -5 19 -18 6 -487 -341 -487 -361 0 -6 7 -27 16
-44 37 -75 -23 -171 -106 -171 -48 0 -92 20 -114 52 -21 29 -20 102 0 133 9
13 14 29 12 34 -3 12 -469 361 -480 361 -5 0 -8 -9 -8 -19z m264 -370 c4 -5
-3 -7 -14 -4 -23 6 -26 13 -6 13 8 0 17 -4 20 -9z"/>
</g>
</svg>
