<svg xmlns="http://www.w3.org/2000/svg" xmlns:xlink="http://www.w3.org/1999/xlink" width="1920" zoomAndPan="magnify" viewBox="0 0 1440 517.49999" height="690" preserveAspectRatio="xMidYMid meet" version="1.0"><defs><clipPath id="34e8e3b6bd"><path d="M 0.695312 0 L 1439.304688 0 L 1439.304688 517 L 0.695312 517 Z M 0.695312 0 " clip-rule="nonzero"/></clipPath><clipPath id="f9070cbd79"><path d="M 693.144531 0.00390625 L 1439.183594 0.00390625 L 1439.183594 516.996094 L 693.144531 516.996094 Z M 693.144531 0.00390625 " clip-rule="nonzero"/></clipPath><clipPath id="2a581fb353"><path d="M 693.144531 0.00390625 L 1180 0.00390625 L 1180 516.996094 L 693.144531 516.996094 Z M 693.144531 0.00390625 " clip-rule="nonzero"/></clipPath><clipPath id="503908d434"><path d="M 882 0.00390625 L 987 0.00390625 L 987 259 L 882 259 Z M 882 0.00390625 " clip-rule="nonzero"/></clipPath><clipPath id="9292c07a55"><path d="M 1066 0.00390625 L 1171 0.00390625 L 1171 259 L 1066 259 Z M 1066 0.00390625 " clip-rule="nonzero"/></clipPath><clipPath id="c2ff48578f"><path d="M 968 258 L 996 258 L 996 516.996094 L 968 516.996094 Z M 968 258 " clip-rule="nonzero"/></clipPath><clipPath id="321150dd13"><path d="M 785 258 L 812 258 L 812 516.996094 L 785 516.996094 Z M 785 258 " clip-rule="nonzero"/></clipPath><clipPath id="a36b3bb7f7"><path d="M 1152 258 L 1180 258 L 1180 516.996094 L 1152 516.996094 Z M 1152 258 " clip-rule="nonzero"/></clipPath><clipPath id="0196f99733"><path d="M 802 0.00390625 L 874 0.00390625 L 874 30 L 802 30 Z M 802 0.00390625 " clip-rule="nonzero"/></clipPath><clipPath id="c47892a42f"><path d="M 693.144531 0.00390625 L 713 0.00390625 L 713 64 L 693.144531 64 Z M 693.144531 0.00390625 " clip-rule="nonzero"/></clipPath><clipPath id="f1554a337d"><path d="M 888 0.00390625 L 897 0.00390625 L 897 63 L 888 63 Z M 888 0.00390625 " clip-rule="nonzero"/></clipPath><clipPath id="4310d39688"><path d="M 1071 0.00390625 L 1081 0.00390625 L 1081 64 L 1071 64 Z M 1071 0.00390625 " clip-rule="nonzero"/></clipPath><clipPath id="ffe28de2d3"><path d="M 693.144531 57 L 713 57 L 713 96 L 693.144531 96 Z M 693.144531 57 " clip-rule="nonzero"/></clipPath><clipPath id="22ee6e638c"><path d="M 1241 0.00390625 L 1416 0.00390625 L 1416 259 L 1241 259 Z M 1241 0.00390625 " clip-rule="nonzero"/></clipPath><clipPath id="5b90fd030c"><path d="M 1327 258 L 1355 258 L 1355 516.996094 L 1327 516.996094 Z M 1327 258 " clip-rule="nonzero"/></clipPath><clipPath id="303e73024e"><path d="M 1236 0.00390625 L 1256 0.00390625 L 1256 64 L 1236 64 Z M 1236 0.00390625 " clip-rule="nonzero"/></clipPath><clipPath id="4973939e34"><path d="M 1430 0.00390625 L 1439.183594 0.00390625 L 1439.183594 63 L 1430 63 Z M 1430 0.00390625 " clip-rule="nonzero"/></clipPath><clipPath id="c4eee2e0ce"><path d="M 1400 57 L 1439.183594 57 L 1439.183594 131 L 1400 131 Z M 1400 57 " clip-rule="nonzero"/></clipPath><clipPath id="93cdaa597f"><path d="M 1327 258 L 1355 258 L 1355 516.996094 L 1327 516.996094 Z M 1327 258 " clip-rule="nonzero"/></clipPath><clipPath id="e076cad0f6"><path d="M 1344 0.00390625 L 1416 0.00390625 L 1416 30 L 1344 30 Z M 1344 0.00390625 " clip-rule="nonzero"/></clipPath><clipPath id="c1e27231e5"><path d="M 1236 0.00390625 L 1256 0.00390625 L 1256 64 L 1236 64 Z M 1236 0.00390625 " clip-rule="nonzero"/></clipPath><clipPath id="ca8d171b69"><path d="M 1430 0.00390625 L 1439.183594 0.00390625 L 1439.183594 63 L 1430 63 Z M 1430 0.00390625 " clip-rule="nonzero"/></clipPath><clipPath id="10c6fde838"><path d="M 1400 57 L 1439.183594 57 L 1439.183594 131 L 1400 131 Z M 1400 57 " clip-rule="nonzero"/></clipPath></defs><g clip-path="url(#34e8e3b6bd)"><path fill="#ffffff" d="M 0.695312 0 L 1439.304688 0 L 1439.304688 524.492188 L 0.695312 524.492188 Z M 0.695312 0 " fill-opacity="1" fill-rule="nonzero"/><path fill="#ffffff" d="M 0.695312 0 L 1439.304688 0 L 1439.304688 517 L 0.695312 517 Z M 0.695312 0 " fill-opacity="1" fill-rule="nonzero"/><path fill="#77f835" d="M 0.695312 0 L 1439.304688 0 L 1439.304688 517 L 0.695312 517 Z M 0.695312 0 " fill-opacity="1" fill-rule="nonzero"/></g><g clip-path="url(#f9070cbd79)"><path fill="#77f835" d="M 693.144531 0.00390625 L 1439.183594 0.00390625 L 1439.183594 516.996094 L 693.144531 516.996094 Z M 693.144531 0.00390625 " fill-opacity="1" fill-rule="nonzero"/></g><g clip-path="url(#2a581fb353)"><path fill="#000000" d="M 1046.773438 120.6875 C 1047.40625 120.292969 1048.359375 120.054688 1048.597656 119.5 C 1054.546875 108.476562 1060.414062 97.296875 1066.441406 86.273438 C 1070.167969 79.457031 1074.292969 72.875 1077.941406 66.054688 C 1079.210938 63.675781 1079.605469 60.820312 1080.480469 58.207031 C 1080.160156 58.125 1079.84375 58.046875 1079.605469 57.96875 C 1074.609375 67.164062 1069.535156 76.285156 1064.617188 85.5625 C 1060.414062 93.410156 1056.449219 101.339844 1052.402344 109.191406 C 1050.421875 113.078125 1048.675781 116.882812 1046.773438 120.6875 C 1044.949219 123.941406 1043.046875 127.109375 1041.140625 130.28125 C 1041.617188 130.519531 1042.09375 130.757812 1042.648438 130.996094 C 1043.996094 127.507812 1045.34375 124.097656 1046.773438 120.6875 Z M 802.347656 29.183594 C 801.792969 29.105469 801.238281 29.023438 800.683594 29.023438 C 773.402344 29.023438 746.121094 29.023438 718.917969 29.023438 C 718.046875 29.023438 717.253906 29.261719 716.460938 29.34375 C 716.0625 36.003906 715.585938 42.347656 715.429688 48.691406 C 715.03125 65.578125 714.714844 82.546875 714.398438 99.4375 C 714.082031 116.882812 713.761719 134.40625 713.445312 151.851562 C 713.128906 169.136719 712.8125 186.34375 712.652344 203.628906 C 712.492188 216.632812 712.652344 229.636719 712.492188 242.640625 C 712.492188 245.734375 711.78125 248.828125 711.464844 252 C 711.226562 253.980469 710.195312 254.695312 708.289062 254.613281 C 705.910156 254.535156 703.53125 254.378906 701.234375 254.773438 C 700.28125 254.933594 699.488281 256.28125 698.695312 257.074219 C 699.488281 257.546875 700.359375 258.421875 701.152344 258.5 C 708.371094 258.578125 715.507812 258.5 722.726562 258.578125 C 724.785156 258.578125 725.5 257.867188 725.421875 255.804688 C 725.34375 250.09375 725.261719 244.386719 725.421875 238.675781 C 725.578125 231.859375 726.054688 225.117188 726.371094 218.296875 C 726.691406 218.535156 727.085938 218.695312 727.402344 218.933594 C 728.277344 217.980469 729.308594 217.109375 729.941406 216 C 739.378906 198.316406 748.65625 180.554688 758.015625 162.871094 C 771.5 137.339844 785.058594 111.808594 798.382812 86.195312 C 800.207031 82.628906 800.921875 78.425781 801.554688 74.382812 C 802.03125 71.210938 801.636719 67.878906 801.714844 64.628906 C 801.953125 57.414062 802.429688 50.195312 802.585938 42.980469 C 802.746094 38.621094 802.585938 34.257812 802.507812 29.898438 C 802.507812 29.5 802.347656 29.34375 802.347656 29.183594 C 825.902344 29.105469 849.535156 29.105469 873.25 29.105469 C 873.25 19.035156 873.25 9.679688 873.25 0.164062 C 849.695312 0.164062 826.378906 0.164062 802.746094 0.164062 C 802.746094 1.90625 802.746094 3.414062 802.746094 5 C 802.585938 13.085938 802.429688 21.175781 802.347656 29.183594 Z M 899.898438 0.242188 C 899.898438 1.90625 899.898438 3.097656 899.898438 4.285156 C 899.660156 19.273438 899.339844 34.339844 899.105469 49.324219 C 898.707031 69.863281 898.390625 90.320312 897.992188 110.855469 C 897.753906 124.335938 897.515625 137.738281 897.28125 151.214844 C 896.960938 168.660156 896.566406 186.183594 896.328125 203.628906 C 896.167969 216.15625 896.328125 228.765625 896.167969 241.292969 C 896.167969 244.625 895.535156 247.953125 895.375 251.363281 C 895.21875 253.980469 893.871094 254.851562 891.410156 254.695312 C 889.429688 254.535156 887.367188 254.695312 885.382812 254.695312 C 882.6875 254.613281 882.050781 255.960938 882.925781 258.578125 C 890.460938 258.578125 897.914062 258.421875 905.449219 258.660156 C 908.460938 258.738281 909.253906 257.707031 909.253906 254.851562 C 909.335938 242.640625 909.730469 230.429688 909.96875 217.980469 C 912.980469 219.410156 913.21875 216.949219 913.855469 215.683594 C 925.273438 194.191406 936.535156 172.703125 947.957031 151.214844 C 958.742188 130.839844 969.609375 110.460938 980.234375 90.082031 C 982.457031 85.878906 984.914062 81.359375 985.230469 76.761719 C 986.183594 64.546875 986.183594 52.179688 986.421875 39.886719 C 986.5 37.746094 985.707031 35.527344 985.707031 33.308594 C 985.707031 30.847656 986.339844 28.46875 986.421875 26.011719 C 986.5 19.035156 986.421875 12.136719 986.421875 5.15625 C 986.421875 3.492188 986.421875 1.90625 986.421875 0.242188 C 957.316406 0.242188 928.84375 0.242188 899.898438 0.242188 Z M 1093.5625 218.0625 C 1093.960938 218.21875 1094.355469 218.378906 1094.753906 218.535156 C 1095.46875 217.824219 1096.5 217.269531 1096.972656 216.394531 C 1102.445312 206.167969 1107.917969 195.859375 1113.3125 185.550781 C 1121.320312 170.40625 1129.253906 155.261719 1137.261719 140.117188 C 1146.144531 123.304688 1155.265625 106.574219 1163.910156 89.683594 C 1166.289062 85.085938 1168.429688 80.011719 1168.90625 75.015625 C 1169.9375 63.914062 1169.777344 52.734375 1170.015625 41.554688 C 1170.09375 37.273438 1170.015625 32.988281 1170.015625 28.789062 C 1170.015625 20.304688 1170.015625 11.738281 1170.015625 3.253906 C 1170.015625 2.304688 1169.9375 1.351562 1169.859375 0.402344 C 1140.988281 0.402344 1112.4375 0.402344 1083.808594 0.402344 C 1083.730469 1.511719 1083.652344 2.382812 1083.652344 3.335938 C 1083.332031 19.035156 1082.9375 34.65625 1082.621094 50.355469 C 1082.222656 70.734375 1081.984375 91.113281 1081.667969 111.570312 C 1081.429688 124.890625 1081.191406 138.210938 1080.875 151.535156 C 1080.558594 168.898438 1080.082031 186.265625 1079.84375 203.628906 C 1079.6875 217.425781 1079.84375 231.222656 1079.6875 245.019531 C 1079.527344 254.535156 1079.367188 254.535156 1070.089844 254.695312 C 1069.773438 254.695312 1069.453125 254.695312 1069.058594 254.695312 C 1066.363281 254.535156 1065.808594 255.960938 1066.519531 258.578125 C 1073.816406 258.578125 1081.035156 258.421875 1088.328125 258.660156 C 1091.660156 258.738281 1092.691406 257.945312 1092.691406 254.378906 C 1092.851562 242.246094 1093.246094 230.113281 1093.5625 218.0625 Z M 968.8125 258.660156 C 969.210938 262.863281 969.765625 266.667969 969.925781 270.554688 C 970.558594 285.617188 971.113281 300.683594 971.667969 315.828125 C 971.988281 325.105469 972.382812 334.382812 972.699219 343.660156 C 973.253906 358.964844 973.890625 374.269531 974.445312 389.652344 C 975.078125 405.984375 975.714844 422.320312 976.269531 438.65625 C 976.746094 452.214844 976.984375 465.695312 977.378906 479.253906 C 977.378906 480.285156 977.695312 481.234375 977.695312 482.265625 C 977.777344 486.707031 977.777344 491.226562 977.777344 495.667969 C 977.777344 502.804688 977.777344 509.859375 977.777344 516.917969 C 983.089844 516.917969 988.324219 516.917969 993.796875 516.917969 C 993.796875 515.570312 993.796875 514.460938 993.796875 513.429688 C 993.160156 496.300781 992.289062 479.253906 992.050781 462.125 C 991.894531 447.933594 992.605469 433.660156 992.921875 419.464844 C 993.242188 404.796875 993.480469 390.128906 993.714844 375.457031 C 994.113281 354.207031 994.351562 332.878906 994.746094 311.625 C 994.984375 298.78125 995.304688 285.855469 995.621094 273.011719 C 995.699219 268.332031 995.621094 263.652344 995.621094 258.816406 C 986.660156 258.660156 978.015625 258.660156 968.8125 258.660156 Z M 785.058594 258.578125 C 785.457031 261.910156 785.933594 264.921875 786.089844 267.855469 C 786.804688 284.269531 787.4375 300.683594 787.996094 317.097656 C 788.3125 325.503906 788.550781 333.90625 788.867188 342.234375 C 789.5 358.09375 790.136719 373.953125 790.769531 389.890625 C 791.40625 405.90625 792.039062 421.84375 792.515625 437.863281 C 792.910156 451.421875 793.230469 464.902344 793.625 478.460938 C 793.625 479.730469 793.863281 480.917969 793.863281 482.105469 C 793.863281 486.707031 793.863281 491.226562 793.863281 495.824219 C 793.863281 502.804688 793.863281 509.859375 793.863281 516.835938 C 799.257812 516.835938 804.492188 516.835938 810.042969 516.835938 C 810.042969 515.488281 810.042969 514.222656 810.042969 513.03125 C 809.488281 496.617188 808.613281 480.203125 808.375 463.710938 C 808.21875 449.359375 808.851562 435.007812 809.089844 420.734375 C 809.40625 405.429688 809.644531 390.046875 809.960938 374.746094 C 810.359375 351.589844 810.675781 328.359375 811.074219 305.203125 C 811.230469 294.421875 811.628906 283.714844 811.785156 272.929688 C 811.867188 268.175781 811.785156 263.417969 811.785156 258.5 C 802.824219 258.578125 794.339844 258.578125 785.058594 258.578125 Z M 1177.472656 516.996094 C 1177.472656 515.570312 1177.472656 514.539062 1177.472656 513.429688 C 1176.835938 496.539062 1175.886719 479.648438 1175.726562 462.761719 C 1175.566406 448.804688 1176.359375 434.769531 1176.597656 420.734375 C 1176.914062 405.589844 1177.234375 390.523438 1177.390625 375.378906 C 1177.710938 351.273438 1177.945312 327.167969 1178.34375 303.0625 C 1178.503906 292.992188 1178.976562 282.921875 1179.296875 272.851562 C 1179.375 268.175781 1179.296875 263.496094 1179.296875 258.660156 C 1170.253906 258.660156 1161.609375 258.660156 1152.410156 258.660156 C 1152.804688 262.148438 1153.363281 265.320312 1153.519531 268.492188 C 1154.234375 284.824219 1154.710938 301.160156 1155.34375 317.496094 C 1155.898438 332.957031 1156.613281 348.339844 1157.167969 363.800781 C 1157.804688 380.375 1158.4375 396.867188 1159.070312 413.4375 C 1159.390625 421.289062 1159.628906 429.058594 1159.863281 436.910156 C 1160.261719 449.675781 1160.5 462.441406 1160.894531 475.207031 C 1161.054688 481.15625 1161.6875 487.023438 1161.6875 492.96875 C 1161.6875 499.789062 1161.132812 506.609375 1160.894531 513.429688 C 1160.816406 514.617188 1160.976562 515.726562 1161.054688 516.996094 C 1166.683594 516.996094 1171.839844 516.996094 1177.472656 516.996094 Z M 704.800781 63.359375 C 706.625 60.1875 708.449219 57.015625 710.195312 53.921875 C 711.78125 51.148438 712.8125 48.371094 712.8125 44.964844 C 712.574219 31.324219 712.730469 17.605469 712.730469 3.96875 C 712.730469 2.777344 712.730469 1.589844 712.730469 0.320312 C 706.070312 0.320312 699.804688 0.320312 693.539062 0.320312 C 693.539062 9.914062 693.539062 19.429688 693.539062 29.261719 C 697.503906 29.261719 701.234375 29.261719 704.878906 29.261719 C 704.800781 40.917969 704.800781 52.101562 704.800781 63.359375 Z M 888.554688 61.851562 C 888.871094 61.933594 889.109375 61.933594 889.429688 62.011719 C 891.171875 58.441406 892.519531 54.558594 894.898438 51.542969 C 896.328125 49.800781 896.328125 48.292969 896.328125 46.550781 C 896.328125 32.277344 896.328125 18.082031 896.328125 3.808594 C 896.328125 2.621094 896.25 1.429688 896.167969 0.242188 C 893.710938 0.242188 891.648438 0.242188 889.109375 0.242188 C 890.222656 21.015625 887.128906 41.394531 888.554688 61.851562 Z M 1080.082031 0.0820312 C 1078.335938 0.0820312 1077.070312 0.164062 1075.71875 0.0820312 C 1073.660156 -0.0742188 1073.023438 0.71875 1072.945312 2.777344 C 1072.707031 13.40625 1072.230469 24.03125 1071.992188 34.65625 C 1071.835938 44.089844 1071.992188 53.449219 1071.992188 63.675781 C 1074.292969 59.632812 1076.117188 56.0625 1078.335938 52.734375 C 1080.320312 49.800781 1080.082031 46.550781 1080.082031 43.378906 C 1080.082031 30.292969 1080.082031 17.132812 1080.082031 4.046875 C 1080.082031 2.777344 1080.082031 1.589844 1080.082031 0.0820312 Z M 857.625 130.203125 C 857.863281 130.363281 858.023438 130.519531 858.261719 130.601562 C 858.578125 130.363281 859.054688 130.28125 859.210938 129.964844 C 863.652344 121.796875 868.015625 113.632812 872.457031 105.464844 C 875.707031 99.4375 879.039062 93.570312 882.289062 87.542969 C 884.90625 82.628906 887.367188 77.710938 890.0625 72.796875 C 891.253906 70.574219 893.078125 68.671875 894.027344 66.292969 C 895.136719 63.597656 897.835938 61.140625 895.929688 57.648438 C 883.082031 81.992188 870.316406 106.097656 857.625 130.203125 Z M 712.335938 57.253906 C 711.859375 58.125 711.699219 58.441406 711.464844 58.839844 C 705.753906 69.78125 699.882812 80.804688 694.175781 91.746094 C 693.617188 92.855469 693.460938 94.203125 693.144531 95.394531 C 695.363281 92.9375 696.871094 90.320312 698.296875 87.703125 C 700.359375 83.816406 702.34375 80.011719 704.40625 76.125 C 706.070312 72.953125 707.734375 69.78125 709.640625 66.691406 C 711.382812 64.074219 713.445312 61.535156 712.335938 57.253906 Z M 1039 136.945312 C 1038.683594 136.785156 1038.289062 136.546875 1037.96875 136.386719 C 1036.382812 139.480469 1034.796875 142.652344 1033.210938 145.746094 C 1033.449219 145.902344 1033.6875 145.984375 1033.925781 146.140625 C 1035.589844 143.050781 1037.335938 139.957031 1039 136.945312 Z M 850.410156 143.683594 C 850.726562 143.921875 851.042969 144.078125 851.359375 144.316406 C 852.628906 141.859375 853.898438 139.402344 855.167969 136.863281 C 854.851562 136.707031 854.53125 136.546875 854.296875 136.386719 C 853.027344 138.847656 851.679688 141.304688 850.410156 143.683594 Z M 850.410156 143.683594 " fill-opacity="1" fill-rule="nonzero"/></g><g clip-path="url(#503908d434)"><path fill="#000000" d="M 899.898438 0.242188 C 928.84375 0.242188 957.316406 0.242188 986.339844 0.242188 C 986.339844 1.90625 986.339844 3.570312 986.339844 5.15625 C 986.339844 12.136719 986.421875 19.035156 986.339844 26.011719 C 986.339844 28.46875 985.628906 30.847656 985.628906 33.308594 C 985.628906 35.527344 986.339844 37.667969 986.339844 39.886719 C 986.101562 52.179688 986.183594 64.46875 985.152344 76.761719 C 984.753906 81.28125 982.296875 85.878906 980.15625 90.082031 C 969.527344 110.539062 958.664062 130.839844 947.878906 151.214844 C 936.535156 172.703125 925.195312 194.191406 913.773438 215.683594 C 913.140625 216.949219 912.902344 219.410156 909.890625 217.980469 C 909.652344 230.429688 909.253906 242.640625 909.175781 254.851562 C 909.175781 257.785156 908.382812 258.738281 905.367188 258.660156 C 897.914062 258.421875 890.378906 258.578125 882.84375 258.578125 C 882.050781 255.882812 882.6875 254.613281 885.304688 254.695312 C 887.285156 254.695312 889.347656 254.613281 891.332031 254.695312 C 893.789062 254.851562 895.136719 254.058594 895.296875 251.363281 C 895.457031 248.035156 896.011719 244.703125 896.089844 241.292969 C 896.25 228.765625 896.089844 216.15625 896.25 203.628906 C 896.488281 186.183594 896.882812 168.660156 897.199219 151.214844 C 897.4375 137.738281 897.675781 124.335938 897.914062 110.855469 C 898.308594 90.320312 898.628906 69.863281 899.023438 49.324219 C 899.261719 34.339844 899.578125 19.273438 899.816406 4.285156 C 899.898438 3.015625 899.898438 1.828125 899.898438 0.242188 Z M 899.898438 0.242188 " fill-opacity="1" fill-rule="nonzero"/></g><g clip-path="url(#9292c07a55)"><path fill="#000000" d="M 1093.5625 218.0625 C 1093.246094 230.113281 1092.851562 242.246094 1092.769531 254.296875 C 1092.769531 257.785156 1091.738281 258.660156 1088.410156 258.578125 C 1081.113281 258.339844 1073.894531 258.5 1066.601562 258.5 C 1065.808594 255.882812 1066.441406 254.457031 1069.136719 254.613281 C 1069.453125 254.613281 1069.773438 254.613281 1070.167969 254.613281 C 1079.449219 254.457031 1079.6875 254.535156 1079.765625 244.941406 C 1080.003906 231.144531 1079.765625 217.347656 1079.921875 203.550781 C 1080.160156 186.183594 1080.636719 168.820312 1080.953125 151.453125 C 1081.191406 138.132812 1081.507812 124.8125 1081.746094 111.492188 C 1082.066406 91.113281 1082.382812 70.734375 1082.699219 50.277344 C 1082.9375 34.574219 1083.332031 18.957031 1083.730469 3.253906 C 1083.730469 2.382812 1083.808594 1.511719 1083.890625 0.320312 C 1112.519531 0.320312 1141.070312 0.320312 1169.9375 0.320312 C 1170.015625 1.273438 1170.09375 2.222656 1170.09375 3.175781 C 1170.09375 11.660156 1170.09375 20.222656 1170.09375 28.707031 C 1170.09375 32.988281 1170.175781 37.273438 1170.09375 41.472656 C 1169.859375 52.65625 1169.9375 63.835938 1168.984375 74.9375 C 1168.507812 79.933594 1166.367188 85.007812 1163.988281 89.605469 C 1155.34375 106.496094 1146.222656 123.226562 1137.339844 140.035156 C 1129.332031 155.179688 1121.402344 170.324219 1113.390625 185.472656 C 1108 195.777344 1102.527344 206.085938 1097.054688 216.316406 C 1096.578125 217.1875 1095.625 217.742188 1094.832031 218.457031 C 1094.355469 218.378906 1093.960938 218.21875 1093.5625 218.0625 Z M 1093.5625 218.0625 " fill-opacity="1" fill-rule="nonzero"/></g><path fill="#000000" d="M 802.269531 29.105469 C 802.347656 29.261719 802.585938 29.5 802.585938 29.660156 C 802.667969 34.019531 802.824219 38.382812 802.667969 42.742188 C 802.429688 49.957031 802.03125 57.175781 801.792969 64.390625 C 801.714844 67.640625 802.109375 70.972656 801.636719 74.144531 C 801 78.1875 800.285156 82.390625 798.464844 85.957031 C 785.21875 111.648438 771.578125 137.101562 758.09375 162.632812 C 748.738281 180.394531 739.378906 198.078125 730.019531 215.761719 C 729.464844 216.871094 728.355469 217.742188 727.484375 218.695312 C 727.164062 218.457031 726.769531 218.296875 726.453125 218.0625 C 726.136719 224.878906 725.738281 231.621094 725.5 238.4375 C 725.34375 244.148438 725.34375 249.855469 725.5 255.566406 C 725.5 257.628906 724.867188 258.339844 722.804688 258.339844 C 715.585938 258.261719 708.449219 258.339844 701.234375 258.261719 C 700.359375 258.261719 699.566406 257.390625 698.773438 256.835938 C 699.644531 256.042969 700.359375 254.695312 701.3125 254.535156 C 703.613281 254.21875 705.992188 254.296875 708.371094 254.378906 C 710.273438 254.457031 711.304688 253.742188 711.542969 251.761719 C 711.859375 248.667969 712.492188 245.574219 712.574219 242.402344 C 712.730469 229.398438 712.574219 216.394531 712.730469 203.390625 C 712.890625 186.105469 713.289062 168.898438 713.523438 151.613281 C 713.84375 134.167969 714.082031 116.644531 714.476562 99.199219 C 714.792969 82.308594 715.109375 65.339844 715.507812 48.453125 C 715.667969 42.109375 716.140625 35.765625 716.539062 29.105469 C 717.253906 29.027344 718.125 28.789062 718.996094 28.789062 C 746.277344 28.789062 773.558594 28.789062 800.761719 28.789062 C 801.238281 29.023438 801.792969 29.105469 802.269531 29.105469 C 802.347656 29.183594 802.269531 29.105469 802.269531 29.105469 Z M 802.269531 29.105469 " fill-opacity="1" fill-rule="nonzero"/><g clip-path="url(#c2ff48578f)"><path fill="#000000" d="M 968.8125 258.660156 C 978.09375 258.660156 986.660156 258.660156 995.621094 258.660156 C 995.621094 263.496094 995.699219 268.175781 995.621094 272.851562 C 995.382812 285.699219 994.984375 298.621094 994.746094 311.46875 C 994.351562 332.71875 994.035156 354.046875 993.714844 375.300781 C 993.480469 389.96875 993.242188 404.636719 992.921875 419.308594 C 992.605469 433.5 991.894531 447.773438 992.050781 461.96875 C 992.210938 479.09375 993.160156 496.140625 993.796875 513.269531 C 993.796875 514.378906 993.796875 515.488281 993.796875 516.757812 C 988.324219 516.757812 983.167969 516.757812 977.777344 516.757812 C 977.777344 509.703125 977.777344 502.566406 977.777344 495.507812 C 977.777344 491.066406 977.777344 486.546875 977.695312 482.105469 C 977.695312 481.078125 977.457031 480.125 977.378906 479.09375 C 976.984375 465.535156 976.664062 452.054688 976.269531 438.496094 C 975.714844 422.160156 975.078125 405.828125 974.445312 389.492188 C 973.890625 374.1875 973.253906 358.886719 972.699219 343.503906 C 972.382812 334.226562 971.988281 324.949219 971.667969 315.671875 C 971.113281 300.605469 970.558594 285.539062 969.925781 270.394531 C 969.6875 266.667969 969.210938 262.863281 968.8125 258.660156 Z M 968.8125 258.660156 " fill-opacity="1" fill-rule="nonzero"/></g><g clip-path="url(#321150dd13)"><path fill="#000000" d="M 785.058594 258.578125 C 794.339844 258.578125 802.824219 258.578125 811.707031 258.578125 C 811.707031 263.417969 811.785156 268.175781 811.707031 273.011719 C 811.46875 283.792969 811.152344 294.5 810.992188 305.285156 C 810.597656 328.4375 810.28125 351.667969 809.882812 374.824219 C 809.644531 390.128906 809.328125 405.511719 809.011719 420.8125 C 808.773438 435.164062 808.136719 449.519531 808.296875 463.789062 C 808.457031 480.203125 809.328125 496.617188 809.960938 513.109375 C 810.042969 514.300781 809.960938 515.488281 809.960938 516.917969 C 804.410156 516.917969 799.175781 516.917969 793.785156 516.917969 C 793.785156 509.859375 793.785156 502.882812 793.785156 495.90625 C 793.785156 491.304688 793.785156 486.785156 793.785156 482.1875 C 793.785156 480.917969 793.546875 479.730469 793.546875 478.539062 C 793.148438 464.980469 792.910156 451.5 792.4375 437.941406 C 791.960938 421.921875 791.324219 405.984375 790.691406 389.96875 C 790.054688 374.109375 789.421875 358.25 788.789062 342.3125 C 788.46875 333.90625 788.230469 325.503906 787.914062 317.175781 C 787.28125 300.761719 786.644531 284.351562 786.011719 267.9375 C 785.933594 264.921875 785.457031 261.910156 785.058594 258.578125 Z M 785.058594 258.578125 " fill-opacity="1" fill-rule="nonzero"/></g><g clip-path="url(#a36b3bb7f7)"><path fill="#000000" d="M 1177.472656 516.996094 C 1171.839844 516.996094 1166.683594 516.996094 1161.132812 516.996094 C 1161.054688 515.808594 1160.894531 514.617188 1160.976562 513.429688 C 1161.214844 506.609375 1161.769531 499.789062 1161.769531 492.96875 C 1161.769531 487.023438 1161.132812 481.15625 1160.976562 475.207031 C 1160.578125 462.441406 1160.339844 449.675781 1159.945312 436.910156 C 1159.707031 429.058594 1159.390625 421.289062 1159.152344 413.4375 C 1158.515625 396.867188 1157.882812 380.292969 1157.246094 363.800781 C 1156.613281 348.339844 1155.980469 332.957031 1155.421875 317.496094 C 1154.789062 301.160156 1154.234375 284.824219 1153.601562 268.492188 C 1153.441406 265.320312 1152.886719 262.148438 1152.488281 258.660156 C 1161.6875 258.660156 1170.332031 258.660156 1179.375 258.660156 C 1179.375 263.496094 1179.453125 268.175781 1179.375 272.851562 C 1179.136719 282.921875 1178.582031 292.992188 1178.421875 303.0625 C 1178.027344 327.167969 1177.789062 351.273438 1177.472656 375.378906 C 1177.234375 390.523438 1176.996094 405.589844 1176.679688 420.734375 C 1176.359375 434.769531 1175.648438 448.726562 1175.804688 462.761719 C 1175.964844 479.648438 1176.996094 496.539062 1177.550781 513.429688 C 1177.472656 514.460938 1177.472656 515.570312 1177.472656 516.996094 Z M 1177.472656 516.996094 " fill-opacity="1" fill-rule="nonzero"/></g><g clip-path="url(#0196f99733)"><path fill="#000000" d="M 802.347656 29.183594 C 802.507812 21.097656 802.585938 13.085938 802.667969 5 C 802.667969 3.414062 802.667969 1.90625 802.667969 0.164062 C 826.378906 0.164062 849.695312 0.164062 873.171875 0.164062 C 873.171875 9.679688 873.171875 19.035156 873.171875 29.105469 C 849.457031 29.105469 825.902344 29.105469 802.347656 29.183594 C 802.269531 29.105469 802.347656 29.183594 802.347656 29.183594 Z M 802.347656 29.183594 " fill-opacity="1" fill-rule="nonzero"/></g><g clip-path="url(#c47892a42f)"><path fill="#000000" d="M 704.800781 63.359375 C 704.800781 52.101562 704.800781 40.917969 704.800781 29.261719 C 701.234375 29.261719 697.503906 29.261719 693.460938 29.261719 C 693.460938 19.351562 693.460938 9.914062 693.460938 0.320312 C 699.726562 0.320312 705.992188 0.320312 712.652344 0.320312 C 712.652344 1.589844 712.652344 2.777344 712.652344 3.96875 C 712.652344 17.605469 712.492188 31.324219 712.730469 44.964844 C 712.8125 48.371094 711.699219 51.148438 710.113281 53.921875 C 708.449219 57.015625 706.625 60.109375 704.800781 63.359375 Z M 704.800781 63.359375 " fill-opacity="1" fill-rule="nonzero"/></g><g clip-path="url(#f1554a337d)"><path fill="#000000" d="M 888.554688 61.851562 C 887.128906 41.394531 890.222656 20.9375 889.109375 0.242188 C 891.648438 0.242188 893.710938 0.242188 896.167969 0.242188 C 896.25 1.429688 896.328125 2.621094 896.328125 3.808594 C 896.328125 18.082031 896.328125 32.277344 896.328125 46.550781 C 896.328125 48.292969 896.328125 49.800781 894.898438 51.542969 C 892.441406 54.558594 891.171875 58.523438 889.429688 62.011719 C 889.191406 62.011719 888.871094 61.933594 888.554688 61.851562 Z M 888.554688 61.851562 " fill-opacity="1" fill-rule="nonzero"/></g><g clip-path="url(#4310d39688)"><path fill="#000000" d="M 1080.082031 0.0820312 C 1080.082031 1.667969 1080.082031 2.859375 1080.082031 4.046875 C 1080.082031 17.132812 1080.082031 30.292969 1080.082031 43.378906 C 1080.082031 46.628906 1080.398438 49.800781 1078.335938 52.734375 C 1076.117188 55.984375 1074.292969 59.554688 1071.992188 63.675781 C 1071.992188 53.449219 1071.835938 44.011719 1071.992188 34.65625 C 1072.152344 24.03125 1072.707031 13.40625 1072.945312 2.777344 C 1073.023438 0.71875 1073.660156 -0.0742188 1075.71875 0.0820312 C 1076.988281 0.164062 1078.335938 0.0820312 1080.082031 0.0820312 Z M 1080.082031 0.0820312 " fill-opacity="1" fill-rule="nonzero"/></g><path fill="#000000" d="M 857.625 130.203125 C 870.394531 106.097656 883.082031 81.992188 895.929688 57.730469 C 897.835938 61.21875 895.136719 63.753906 894.027344 66.371094 C 893.078125 68.671875 891.253906 70.65625 890.0625 72.875 C 887.445312 77.710938 884.90625 82.707031 882.289062 87.625 C 879.039062 93.648438 875.707031 99.597656 872.457031 105.542969 C 868.015625 113.710938 863.652344 121.878906 859.210938 130.046875 C 859.054688 130.363281 858.578125 130.441406 858.261719 130.679688 C 858.023438 130.441406 857.785156 130.363281 857.625 130.203125 Z M 857.625 130.203125 " fill-opacity="1" fill-rule="nonzero"/><path fill="#000000" d="M 1046.851562 120.769531 C 1048.675781 116.960938 1050.421875 113.078125 1052.402344 109.269531 C 1056.449219 101.339844 1060.414062 93.410156 1064.617188 85.640625 C 1069.535156 76.363281 1074.609375 67.246094 1079.605469 58.046875 C 1079.921875 58.125 1080.242188 58.207031 1080.480469 58.285156 C 1079.6875 60.902344 1079.210938 63.753906 1077.941406 66.132812 C 1074.292969 72.953125 1070.167969 79.535156 1066.441406 86.355469 C 1060.414062 97.375 1054.546875 108.554688 1048.597656 119.578125 C 1048.28125 120.054688 1047.40625 120.292969 1046.851562 120.769531 Z M 1046.851562 120.769531 " fill-opacity="1" fill-rule="nonzero"/><g clip-path="url(#ffe28de2d3)"><path fill="#000000" d="M 712.335938 57.253906 C 713.445312 61.535156 711.304688 64.074219 709.640625 66.769531 C 707.734375 69.78125 706.148438 73.03125 704.40625 76.203125 C 702.34375 80.011719 700.359375 83.894531 698.296875 87.78125 C 696.871094 90.398438 695.363281 93.09375 693.144531 95.472656 C 693.460938 94.203125 693.617188 92.9375 694.175781 91.824219 C 699.882812 80.804688 705.753906 69.78125 711.542969 58.839844 C 711.699219 58.441406 711.9375 58.125 712.335938 57.253906 Z M 712.335938 57.253906 " fill-opacity="1" fill-rule="nonzero"/></g><path fill="#000000" d="M 1046.773438 120.6875 C 1045.425781 124.097656 1043.996094 127.585938 1042.648438 130.996094 C 1042.171875 130.757812 1041.699219 130.519531 1041.140625 130.28125 C 1043.046875 127.03125 1044.949219 123.859375 1046.773438 120.6875 C 1046.851562 120.769531 1046.773438 120.6875 1046.773438 120.6875 Z M 1046.773438 120.6875 " fill-opacity="1" fill-rule="nonzero"/><path fill="#000000" d="M 1039 136.945312 C 1037.257812 140.035156 1035.589844 143.050781 1033.847656 146.140625 C 1033.609375 145.984375 1033.371094 145.902344 1033.132812 145.746094 C 1034.71875 142.652344 1036.304688 139.480469 1037.890625 136.386719 C 1038.289062 136.546875 1038.683594 136.785156 1039 136.945312 Z M 1039 136.945312 " fill-opacity="1" fill-rule="nonzero"/><path fill="#000000" d="M 850.410156 143.683594 C 851.679688 141.226562 853.027344 138.847656 854.296875 136.386719 C 854.613281 136.546875 854.929688 136.707031 855.167969 136.863281 C 853.898438 139.324219 852.628906 141.78125 851.359375 144.316406 C 851.042969 144.160156 850.726562 143.921875 850.410156 143.683594 Z M 850.410156 143.683594 " fill-opacity="1" fill-rule="nonzero"/><g clip-path="url(#22ee6e638c)"><path fill="#000000" d="M 1344.96875 29.183594 C 1344.414062 29.105469 1343.855469 29.023438 1343.300781 29.023438 C 1316.019531 29.023438 1288.738281 29.023438 1261.535156 29.023438 C 1260.664062 29.023438 1259.871094 29.261719 1259.078125 29.34375 C 1258.679688 36.003906 1258.207031 42.347656 1258.046875 48.691406 C 1257.652344 65.578125 1257.332031 82.546875 1257.015625 99.4375 C 1256.699219 116.882812 1256.382812 134.40625 1256.0625 151.851562 C 1255.746094 169.136719 1255.429688 186.34375 1255.269531 203.628906 C 1255.113281 216.632812 1255.269531 229.636719 1255.113281 242.640625 C 1255.113281 245.734375 1254.398438 248.828125 1254.082031 252 C 1253.84375 253.980469 1252.8125 254.695312 1250.910156 254.613281 C 1248.53125 254.535156 1246.152344 254.378906 1243.851562 254.773438 C 1242.898438 254.933594 1242.105469 256.28125 1241.3125 257.074219 C 1242.105469 257.546875 1242.980469 258.421875 1243.773438 258.5 C 1250.988281 258.578125 1258.125 258.5 1265.34375 258.578125 C 1267.40625 258.578125 1268.117188 257.867188 1268.039062 255.804688 C 1267.960938 250.09375 1267.882812 244.386719 1268.039062 238.675781 C 1268.199219 231.859375 1268.675781 225.117188 1268.992188 218.296875 C 1269.308594 218.535156 1269.707031 218.695312 1270.023438 218.933594 C 1270.894531 217.980469 1271.925781 217.109375 1272.558594 216 C 1281.996094 198.316406 1291.277344 180.554688 1300.636719 162.871094 C 1314.117188 137.339844 1327.679688 111.808594 1341.003906 86.195312 C 1342.828125 82.628906 1343.539062 78.425781 1344.175781 74.382812 C 1344.648438 71.210938 1344.253906 67.878906 1344.332031 64.628906 C 1344.570312 57.414062 1345.046875 50.195312 1345.207031 42.980469 C 1345.363281 38.621094 1345.207031 34.257812 1345.125 29.898438 C 1345.207031 29.5 1344.96875 29.34375 1344.96875 29.183594 C 1368.523438 29.105469 1392.15625 29.105469 1415.867188 29.105469 C 1415.867188 19.035156 1415.867188 9.679688 1415.867188 0.164062 C 1392.3125 0.164062 1368.996094 0.164062 1345.363281 0.164062 C 1345.363281 1.90625 1345.363281 3.414062 1345.363281 5 C 1345.207031 13.085938 1345.046875 21.175781 1344.96875 29.183594 Z M 1344.96875 29.183594 " fill-opacity="1" fill-rule="nonzero"/></g><g clip-path="url(#5b90fd030c)"><path fill="#000000" d="M 1327.757812 258.578125 C 1328.15625 261.910156 1328.628906 264.921875 1328.789062 267.855469 C 1329.503906 284.269531 1330.136719 300.683594 1330.691406 317.097656 C 1331.007812 325.503906 1331.246094 333.90625 1331.566406 342.234375 C 1332.199219 358.09375 1332.832031 373.953125 1333.46875 389.890625 C 1334.101562 405.90625 1334.738281 421.84375 1335.210938 437.863281 C 1335.609375 451.421875 1335.925781 464.902344 1336.324219 478.460938 C 1336.324219 479.730469 1336.5625 480.917969 1336.5625 482.105469 C 1336.5625 486.707031 1336.5625 491.226562 1336.5625 495.824219 C 1336.5625 502.804688 1336.5625 509.859375 1336.5625 516.835938 C 1341.953125 516.835938 1347.1875 516.835938 1352.738281 516.835938 C 1352.738281 515.488281 1352.738281 514.222656 1352.738281 513.03125 C 1352.183594 496.617188 1351.3125 480.203125 1351.074219 463.710938 C 1350.914062 449.359375 1351.550781 435.007812 1351.789062 420.734375 C 1352.105469 405.429688 1352.34375 390.046875 1352.660156 374.746094 C 1353.058594 351.589844 1353.375 328.359375 1353.769531 305.203125 C 1353.929688 294.421875 1354.324219 283.714844 1354.484375 272.929688 C 1354.5625 268.175781 1354.484375 263.417969 1354.484375 258.5 C 1345.441406 258.578125 1336.957031 258.578125 1327.757812 258.578125 Z M 1327.757812 258.578125 " fill-opacity="1" fill-rule="nonzero"/></g><g clip-path="url(#303e73024e)"><path fill="#000000" d="M 1247.5 63.359375 C 1249.324219 60.1875 1251.148438 57.015625 1252.890625 53.921875 C 1254.476562 51.148438 1255.507812 48.371094 1255.507812 44.964844 C 1255.269531 31.324219 1255.429688 17.605469 1255.429688 3.96875 C 1255.429688 2.777344 1255.429688 1.589844 1255.429688 0.320312 C 1248.769531 0.320312 1242.503906 0.320312 1236.238281 0.320312 C 1236.238281 9.914062 1236.238281 19.429688 1236.238281 29.261719 C 1240.203125 29.261719 1243.929688 29.261719 1247.578125 29.261719 C 1247.5 40.917969 1247.5 52.101562 1247.5 63.359375 Z M 1247.5 63.359375 " fill-opacity="1" fill-rule="nonzero"/></g><g clip-path="url(#4973939e34)"><path fill="#000000" d="M 1431.253906 61.851562 C 1431.570312 61.933594 1431.808594 61.933594 1432.125 62.011719 C 1433.871094 58.441406 1435.21875 54.558594 1437.597656 51.542969 C 1439.027344 49.800781 1439.027344 48.292969 1439.027344 46.550781 C 1439.027344 32.277344 1439.027344 18.082031 1439.027344 3.808594 C 1439.027344 2.621094 1438.945312 1.429688 1438.867188 0.242188 C 1436.410156 0.242188 1434.347656 0.242188 1431.808594 0.242188 C 1432.839844 21.015625 1429.824219 41.394531 1431.253906 61.851562 Z M 1431.253906 61.851562 " fill-opacity="1" fill-rule="nonzero"/></g><g clip-path="url(#c4eee2e0ce)"><path fill="#000000" d="M 1400.246094 130.203125 C 1400.480469 130.363281 1400.640625 130.519531 1400.878906 130.601562 C 1401.195312 130.363281 1401.671875 130.28125 1401.832031 129.964844 C 1406.273438 121.796875 1410.632812 113.632812 1415.074219 105.464844 C 1418.328125 99.4375 1421.65625 93.570312 1424.910156 87.542969 C 1427.527344 82.628906 1429.984375 77.710938 1432.679688 72.796875 C 1433.871094 70.574219 1435.695312 68.671875 1436.644531 66.292969 C 1437.757812 63.597656 1440.453125 61.140625 1438.550781 57.648438 C 1425.703125 81.992188 1412.933594 106.097656 1400.246094 130.203125 Z M 1400.246094 130.203125 " fill-opacity="1" fill-rule="nonzero"/></g><path fill="#000000" d="M 1255.035156 57.253906 C 1254.558594 58.125 1254.398438 58.441406 1254.160156 58.839844 C 1248.371094 69.863281 1242.582031 80.804688 1236.792969 91.824219 C 1236.238281 92.9375 1236.078125 94.285156 1235.761719 95.472656 C 1237.980469 93.015625 1239.488281 90.398438 1240.917969 87.78125 C 1242.980469 83.894531 1244.960938 80.089844 1247.023438 76.203125 C 1248.6875 73.03125 1250.355469 69.863281 1252.257812 66.769531 C 1254.003906 64.074219 1256.144531 61.535156 1255.035156 57.253906 Z M 1255.035156 57.253906 " fill-opacity="1" fill-rule="nonzero"/><path fill="#000000" d="M 1393.027344 143.683594 C 1393.34375 143.921875 1393.660156 144.078125 1393.980469 144.316406 C 1395.25 141.859375 1396.515625 139.402344 1397.785156 136.863281 C 1397.46875 136.707031 1397.152344 136.546875 1396.914062 136.386719 C 1395.644531 138.847656 1394.375 141.304688 1393.027344 143.683594 Z M 1393.027344 143.683594 " fill-opacity="1" fill-rule="nonzero"/><path fill="#000000" d="M 1344.886719 29.105469 C 1344.96875 29.261719 1345.207031 29.5 1345.207031 29.660156 C 1345.285156 34.019531 1345.441406 38.382812 1345.285156 42.742188 C 1345.046875 49.957031 1344.648438 57.175781 1344.414062 64.390625 C 1344.332031 67.640625 1344.730469 70.972656 1344.253906 74.144531 C 1343.621094 78.1875 1342.90625 82.390625 1341.082031 85.957031 C 1327.835938 111.648438 1314.195312 137.101562 1300.714844 162.632812 C 1291.355469 180.394531 1281.996094 198.078125 1272.640625 215.761719 C 1272.085938 216.871094 1270.972656 217.742188 1270.101562 218.695312 C 1269.785156 218.457031 1269.386719 218.296875 1269.070312 218.0625 C 1268.753906 224.878906 1268.355469 231.621094 1268.117188 238.4375 C 1267.960938 244.148438 1267.960938 249.855469 1268.117188 255.566406 C 1268.117188 257.628906 1267.484375 258.339844 1265.421875 258.339844 C 1258.207031 258.261719 1251.066406 258.339844 1243.851562 258.261719 C 1242.980469 258.261719 1242.1875 257.390625 1241.390625 256.835938 C 1242.265625 256.042969 1242.980469 254.695312 1243.929688 254.535156 C 1246.230469 254.21875 1248.609375 254.296875 1250.988281 254.378906 C 1252.890625 254.457031 1253.921875 253.742188 1254.160156 251.761719 C 1254.476562 248.667969 1255.113281 245.574219 1255.191406 242.402344 C 1255.351562 229.398438 1255.191406 216.394531 1255.351562 203.390625 C 1255.507812 186.105469 1255.90625 168.898438 1256.144531 151.613281 C 1256.460938 134.167969 1256.699219 116.644531 1257.09375 99.199219 C 1257.414062 82.308594 1257.730469 65.339844 1258.125 48.453125 C 1258.285156 42.109375 1258.761719 35.765625 1259.15625 29.105469 C 1259.871094 29.023438 1260.742188 28.789062 1261.617188 28.789062 C 1288.898438 28.789062 1316.179688 28.789062 1343.382812 28.789062 C 1343.855469 29.023438 1344.414062 29.105469 1344.886719 29.105469 C 1344.96875 29.183594 1344.886719 29.105469 1344.886719 29.105469 Z M 1344.886719 29.105469 " fill-opacity="1" fill-rule="nonzero"/><g clip-path="url(#93cdaa597f)"><path fill="#000000" d="M 1327.757812 258.578125 C 1337.035156 258.578125 1345.523438 258.578125 1354.40625 258.578125 C 1354.40625 263.417969 1354.484375 268.175781 1354.40625 273.011719 C 1354.167969 283.792969 1353.851562 294.5 1353.691406 305.285156 C 1353.292969 328.4375 1352.976562 351.667969 1352.582031 374.824219 C 1352.34375 390.128906 1352.027344 405.511719 1351.707031 420.8125 C 1351.46875 435.164062 1350.835938 449.519531 1350.996094 463.789062 C 1351.152344 480.203125 1352.027344 496.617188 1352.660156 513.109375 C 1352.738281 514.300781 1352.660156 515.488281 1352.660156 516.917969 C 1347.109375 516.917969 1341.875 516.917969 1336.480469 516.917969 C 1336.480469 509.859375 1336.480469 502.882812 1336.480469 495.90625 C 1336.480469 491.304688 1336.480469 486.785156 1336.480469 482.1875 C 1336.480469 480.917969 1336.242188 479.730469 1336.242188 478.539062 C 1335.847656 464.980469 1335.609375 451.5 1335.132812 437.941406 C 1334.65625 421.921875 1334.023438 405.984375 1333.386719 389.96875 C 1332.753906 374.109375 1332.121094 358.25 1331.484375 342.3125 C 1331.167969 333.90625 1330.929688 325.503906 1330.613281 317.175781 C 1329.976562 300.761719 1329.34375 284.351562 1328.710938 267.9375 C 1328.628906 264.921875 1328.074219 261.910156 1327.757812 258.578125 Z M 1327.757812 258.578125 " fill-opacity="1" fill-rule="nonzero"/></g><g clip-path="url(#e076cad0f6)"><path fill="#000000" d="M 1344.96875 29.183594 C 1345.125 21.097656 1345.207031 13.085938 1345.285156 5 C 1345.285156 3.414062 1345.285156 1.90625 1345.285156 0.164062 C 1368.996094 0.164062 1392.3125 0.164062 1415.789062 0.164062 C 1415.789062 9.679688 1415.789062 19.035156 1415.789062 29.105469 C 1392.15625 29.105469 1368.523438 29.105469 1344.96875 29.183594 C 1344.886719 29.105469 1344.96875 29.183594 1344.96875 29.183594 Z M 1344.96875 29.183594 " fill-opacity="1" fill-rule="nonzero"/></g><g clip-path="url(#c1e27231e5)"><path fill="#000000" d="M 1247.5 63.359375 C 1247.5 52.101562 1247.5 40.917969 1247.5 29.261719 C 1243.929688 29.261719 1240.203125 29.261719 1236.160156 29.261719 C 1236.160156 19.351562 1236.160156 9.914062 1236.160156 0.320312 C 1242.421875 0.320312 1248.6875 0.320312 1255.351562 0.320312 C 1255.351562 1.589844 1255.351562 2.777344 1255.351562 3.96875 C 1255.351562 17.605469 1255.191406 31.324219 1255.429688 44.964844 C 1255.507812 48.371094 1254.398438 51.148438 1252.8125 53.921875 C 1251.066406 57.015625 1249.324219 60.109375 1247.5 63.359375 Z M 1247.5 63.359375 " fill-opacity="1" fill-rule="nonzero"/></g><g clip-path="url(#ca8d171b69)"><path fill="#000000" d="M 1431.253906 61.851562 C 1429.824219 41.394531 1432.917969 20.9375 1431.808594 0.242188 C 1434.347656 0.242188 1436.410156 0.242188 1438.867188 0.242188 C 1438.945312 1.429688 1439.027344 2.621094 1439.027344 3.808594 C 1439.027344 18.082031 1439.027344 32.277344 1439.027344 46.550781 C 1439.027344 48.292969 1439.027344 49.800781 1437.597656 51.542969 C 1435.140625 54.558594 1433.871094 58.523438 1432.125 62.011719 C 1431.808594 62.011719 1431.492188 61.933594 1431.253906 61.851562 Z M 1431.253906 61.851562 " fill-opacity="1" fill-rule="nonzero"/></g><g clip-path="url(#10c6fde838)"><path fill="#000000" d="M 1400.246094 130.203125 C 1413.011719 106.097656 1425.703125 81.992188 1438.550781 57.730469 C 1440.453125 61.21875 1437.757812 63.753906 1436.644531 66.371094 C 1435.695312 68.671875 1433.871094 70.65625 1432.679688 72.875 C 1430.0625 77.710938 1427.527344 82.707031 1424.910156 87.625 C 1421.65625 93.648438 1418.328125 99.597656 1415.074219 105.542969 C 1410.632812 113.710938 1406.273438 121.878906 1401.832031 130.046875 C 1401.671875 130.363281 1401.195312 130.441406 1400.878906 130.679688 C 1400.640625 130.441406 1400.402344 130.363281 1400.246094 130.203125 Z M 1400.246094 130.203125 " fill-opacity="1" fill-rule="nonzero"/></g><path fill="#000000" d="M 1255.035156 57.253906 C 1256.144531 61.535156 1254.003906 64.074219 1252.335938 66.769531 C 1250.433594 69.78125 1248.847656 73.03125 1247.101562 76.203125 C 1245.039062 80.011719 1243.058594 83.894531 1240.996094 87.78125 C 1239.570312 90.398438 1238.0625 93.09375 1235.839844 95.472656 C 1236.160156 94.203125 1236.316406 92.9375 1236.871094 91.824219 C 1242.582031 80.804688 1248.449219 69.863281 1254.242188 58.839844 C 1254.320312 58.441406 1254.558594 58.125 1255.035156 57.253906 Z M 1255.035156 57.253906 " fill-opacity="1" fill-rule="nonzero"/><path fill="#000000" d="M 1393.027344 143.683594 C 1394.296875 141.226562 1395.644531 138.847656 1396.914062 136.386719 C 1397.230469 136.546875 1397.546875 136.707031 1397.785156 136.863281 C 1396.515625 139.324219 1395.25 141.78125 1393.980469 144.316406 C 1393.660156 144.160156 1393.34375 143.921875 1393.027344 143.683594 Z M 1393.027344 143.683594 " fill-opacity="1" fill-rule="nonzero"/></svg>